<?xml version="1.0" standalone="no"?>
<!DOCTYPE svg PUBLIC "-//W3C//DTD SVG 20010904//EN"
 "http://www.w3.org/TR/2001/REC-SVG-20010904/DTD/svg10.dtd">
<svg version="1.0" xmlns="http://www.w3.org/2000/svg"
 width="1330.000000pt" height="1330.000000pt" viewBox="0 0 1330.000000 1330.000000"
 preserveAspectRatio="xMidYMid meet">
<metadata>
Created by potrace 1.11, written by Peter Selinger 2001-2013
</metadata>
<g transform="translate(0.000000,1330.000000) scale(0.100000,-0.100000)"
fill="#000000" stroke="none">
<path d="M4650 13276 c5 -13 24 -57 43 -97 30 -64 46 -101 52 -119 1 -3 19
-41 39 -85 21 -44 42 -89 46 -101 7 -18 16 -20 63 -19 53 2 58 0 108 -46 l52
-47 -1 -69 c0 -59 -7 -82 -41 -156 -23 -49 -41 -90 -41 -92 0 -2 -15 -37 -34
-78 -114 -246 -300 -764 -332 -926 -3 -12 -11 -51 -19 -85 -8 -33 -17 -86 -20
-116 -3 -30 -7 -64 -9 -75 -2 -14 -18 -26 -52 -38 -44 -17 -195 -63 -234 -72
-8 -2 -80 -19 -160 -38 -80 -19 -167 -38 -195 -43 -27 -4 -52 -8 -55 -9 -3 -1
-25 -5 -50 -9 -25 -5 -54 -10 -65 -12 -19 -4 -56 -9 -137 -20 -24 -3 -54 -7
-68 -9 -14 -2 -59 -7 -100 -10 -41 -4 -88 -8 -104 -10 -210 -27 -733 -21 -993
10 -115 14 -141 17 -178 26 -76 17 -70 35 -73 -228 -2 -131 -5 -359 -7 -508
-26 -1863 -26 -3480 -1 -3735 2 -19 7 -69 10 -110 4 -41 9 -88 11 -105 4 -28
6 -47 20 -170 3 -27 8 -57 10 -65 2 -8 7 -35 10 -60 9 -68 15 -99 71 -400 3
-14 12 -52 21 -85 8 -33 17 -71 20 -85 2 -14 11 -48 19 -76 8 -28 16 -61 19
-73 21 -110 194 -644 245 -756 5 -11 26 -60 46 -110 130 -322 324 -701 537
-1050 39 -64 241 -369 277 -419 l43 -59 -34 7 c-19 4 -45 10 -59 12 -55 11
-574 146 -703 182 -114 33 -138 37 -134 23 11 -33 38 -107 46 -126 5 -11 58
-156 118 -321 l109 -302 -36 -68 c-20 -38 -87 -167 -148 -287 l-112 -217 27
-11 c119 -46 577 -184 708 -214 11 -2 76 -18 145 -34 69 -16 177 -39 240 -51
63 -12 117 -26 120 -31 3 -5 5 -94 5 -199 0 -104 0 -190 1 -190 1 0 55 -11
120 -24 66 -14 137 -27 159 -31 23 -3 52 -8 65 -10 14 -3 43 -7 65 -10 22 -3
65 -10 95 -15 30 -5 71 -12 90 -14 82 -11 137 -18 160 -21 14 -2 52 -7 85 -11
33 -3 67 -8 75 -9 8 -2 44 -6 80 -10 36 -3 76 -8 90 -10 14 -2 61 -7 105 -10
44 -4 91 -8 105 -10 28 -4 123 -13 215 -20 139 -10 160 -15 196 -42 20 -16 99
-75 174 -132 309 -233 695 -471 941 -579 105 -46 109 -46 239 10 71 31 235
113 275 138 8 5 65 39 125 76 193 117 414 273 618 437 53 43 105 80 115 81 9
2 58 7 107 11 50 3 106 8 125 10 19 2 69 7 110 10 41 4 86 8 100 10 14 2 54 7
90 10 36 4 81 8 100 11 19 2 58 6 85 9 28 4 61 8 75 10 14 2 45 6 70 10 25 3
61 7 80 10 19 3 55 7 80 10 25 3 56 8 70 10 14 3 40 7 58 10 71 11 91 14 187
31 55 9 109 18 120 20 66 12 132 26 148 30 15 5 17 23 17 199 0 176 2 194 18
199 16 5 160 33 207 41 67 11 379 86 441 106 17 5 40 11 50 14 29 6 193 54
254 74 30 10 108 36 173 57 71 24 117 44 117 52 0 7 -13 36 -29 65 -15 29 -80
153 -144 277 l-115 225 100 270 c55 149 101 275 102 280 2 6 6 17 9 25 7 18
67 183 67 185 0 1 -78 -20 -172 -46 -200 -57 -728 -189 -752 -189 -12 0 -5 16
28 63 81 112 87 121 159 232 40 61 116 184 170 275 54 91 102 172 107 180 59
97 262 508 340 690 91 212 232 593 255 690 2 8 13 44 24 80 17 54 52 181 67
240 28 115 36 147 39 160 2 8 8 35 14 60 5 25 12 56 15 70 2 14 11 57 19 95 9
39 18 88 21 110 4 22 8 47 11 55 2 8 6 35 9 60 3 25 8 54 10 66 2 12 7 45 11
74 4 29 8 60 10 69 1 9 6 45 9 81 4 36 9 76 11 90 2 14 7 57 10 95 3 39 8 86
10 105 27 250 27 1673 -1 3745 -3 248 -7 507 -8 577 0 70 -4 129 -8 133 -3 4
-44 0 -90 -8 -45 -9 -114 -19 -153 -22 -38 -4 -83 -9 -100 -11 -208 -21 -659
-21 -895 1 -111 10 -177 17 -190 20 -8 3 -42 7 -75 10 -33 3 -67 7 -75 9 -8 1
-37 6 -65 10 -194 29 -543 111 -712 168 l-98 33 -6 50 c-24 184 -61 333 -145
580 -53 158 -155 421 -203 527 -11 24 -34 77 -52 118 -17 41 -45 102 -61 135
-23 49 -29 74 -30 134 l-1 74 49 47 c47 45 51 47 106 45 l57 -2 26 61 c15 34
43 94 61 134 19 41 34 76 34 78 0 2 16 36 35 75 19 40 35 78 35 86 0 11 -341
13 -2010 13 l-2010 0 10 -24z"/>
</g>
</svg>
